<svg width="371" height="45" viewBox="0 0 371 45" fill="none" xmlns="http://www.w3.org/2000/svg">
<path d="M21.4037 0.0331345C18.8891 0.241798 17.5247 0.851746 16.8345 2.08234C16.6954 2.33381 16.5456 2.56922 16.5028 2.60132C16.4439 2.64948 16.2834 2.58527 15.7163 2.2696L15.0047 1.87902L14.5499 1.88437C13.9774 1.88437 12.4846 2.22145 12.185 2.41941C11.5376 2.83674 10.8421 3.92822 10.4997 5.0625C10.3231 5.64034 10.3017 6.59806 10.4515 7.14915C10.6762 7.98916 11.2915 8.96293 11.9229 9.48727C12.8431 10.2524 13.7473 10.5199 15.6735 10.6001C16.8613 10.6537 17.0592 10.8035 16.6419 11.3385C16.3476 11.7291 16.1764 12.1304 16.1015 12.6172C16.032 13.0827 16.0908 13.5268 16.2513 13.805C16.3744 14.0244 16.7543 14.2117 17.0646 14.2117C17.712 14.2063 18.6269 13.8318 19.301 13.2807C19.8789 12.8099 20.0126 12.7457 20.3818 12.7831C20.949 12.8313 21.4465 13.2218 21.5964 13.7248C21.7515 14.2598 21.5482 15.2068 20.8045 17.4326C20.5423 18.2137 20.3283 18.9414 20.3283 19.0431C20.3283 19.3427 20.4407 19.3908 20.8045 19.2571C20.9704 19.1929 21.3021 19.0698 21.5429 18.9789C22.7146 18.5455 23.9719 18.6739 25.3149 19.3587C26.3742 19.8991 27.332 20.8087 27.6102 21.5363C27.8135 22.0767 27.7065 22.8097 27.4069 22.9488C27.2196 23.0344 27.0163 22.9114 26.4492 22.387C26.1816 22.1356 25.8339 21.836 25.6733 21.7129C24.3197 20.691 21.9281 20.5465 21.163 21.44C21.0292 21.6005 20.965 21.7397 20.9222 21.9804C20.8527 22.3977 20.7563 22.5369 20.4942 22.6171C20.3069 22.6706 20.1892 22.6599 19.5258 22.5048C18.8623 22.3496 18.7071 22.3335 18.2149 22.3549C17.6638 22.3817 17.6478 22.387 17.0325 22.6867C16.3048 23.0398 15.9142 23.1201 15.3257 23.0344C14.8121 22.9649 14.5178 22.8632 13.7901 22.4994C13.4424 22.3228 13.1106 22.1837 13.0518 22.1837C12.8806 22.1837 12.918 22.3924 13.1588 22.7776C13.635 23.532 13.6992 23.8638 13.4103 24.0778C13.2123 24.2222 12.6077 24.2543 11.5537 24.1634C10.719 24.0938 10.4836 24.1259 10.4836 24.3132C10.4836 24.4416 10.8314 24.7626 11.4092 25.1799C11.9871 25.5919 12.1957 25.7845 12.1957 25.8969C12.1957 26.0093 12.1315 26.0039 11.3664 25.8701C10.6441 25.7364 10.3338 25.7578 10.0449 25.9451C9.61149 26.234 9.55264 26.8225 9.80946 28.3367C10.0181 29.5833 9.97532 29.9953 9.59544 30.2468C9.36538 30.3912 8.88384 30.3538 8.23644 30.1344C7.39643 29.8455 7.27337 29.8883 7.78701 30.2789C8.86244 31.0868 9.07645 31.3061 9.23162 31.7609C9.44563 32.3762 8.92129 32.9701 7.53019 33.7138C6.72764 34.1365 6.67948 34.2382 7.36433 34.0883C8.22039 33.8957 9.94857 33.2323 11.1417 32.6384C12.4044 32.007 14.2342 30.9316 15.9142 29.8348C17.3267 28.9092 17.8939 28.6256 19.2529 28.1548C20.9222 27.5716 22.5755 27.3576 22.5755 27.716C22.5755 27.7588 22.3775 27.9461 22.1367 28.128C20.7242 29.1927 19.6756 30.8728 19.6702 32.0819C19.6702 32.9541 19.9056 33.1895 21.8478 34.2007C22.9179 34.7571 22.9928 34.8213 22.9286 35.1477C22.8804 35.4099 22.629 35.6774 21.4305 36.7261C20.125 37.8657 19.1031 38.8823 18.9693 39.1659C18.7714 39.5832 18.9479 39.6313 19.9484 39.4655C20.4888 39.3745 20.66 39.3585 20.751 39.412C21.0667 39.5778 20.5423 40.1396 18.8356 41.4612C18.3915 41.8036 17.6638 42.3707 17.2144 42.7132C15.9517 43.6923 15.3257 44.3236 15.4381 44.5055C15.5183 44.6339 16.1176 44.4948 17.5247 44.0133C22.2705 42.3868 24.416 41.825 28.7552 41.0706C30.494 40.7656 30.5101 40.7656 30.4619 40.6854C30.4191 40.6158 29.654 40.6479 27.043 40.8352C25.0848 40.9743 22.5701 41.0599 22.2384 40.9957C22.0137 40.9529 21.9762 40.8405 22.1528 40.7442C22.3936 40.6212 23.2282 40.359 24.4214 40.0487C25.1009 39.8721 26.1121 39.6046 26.6685 39.4601C28.7659 38.909 29.8734 38.5238 30.1249 38.2563L30.2533 38.1172L30.1142 37.9995C29.868 37.7855 29.0601 37.6784 27.0965 37.5928C24.4267 37.4805 24.3251 37.4484 25.684 37.1434C27.241 36.7956 29.9162 36.5014 32.982 36.3355C35.0258 36.2285 35.593 36.1215 36.235 35.7095C36.6256 35.4634 37.0857 34.9177 37.3372 34.4201C37.6422 33.8155 37.7331 33.4035 37.7064 32.8042C37.6743 32.1997 37.5459 31.9054 37.1232 31.4881C36.754 31.1189 36.342 30.9102 35.3736 30.5838C34.9777 30.4501 34.6566 30.3163 34.662 30.2896C34.6673 30.2575 34.7851 30.2414 34.9242 30.2468C35.0633 30.2521 35.6358 30.2628 36.1922 30.2682C37.3318 30.2842 37.7064 30.2147 38.3645 29.8829C39.6432 29.2409 40.3762 28.0799 41.0664 25.6187C41.5961 23.7139 41.7138 22.8953 41.5479 22.2372C41.3981 21.638 41.2055 21.0227 41.0771 20.6963C40.4672 19.2036 39.1349 18.1923 37.4709 17.9623C37.2409 17.9302 37.0483 17.8927 37.0429 17.8874C37.0322 17.8767 37.1446 17.5985 37.289 17.2614C38.0274 15.5332 38.2789 13.896 38.0648 12.1732C37.9525 11.2582 37.7866 10.643 37.503 10.0919C36.7968 8.74356 35.5341 7.94636 33.6722 7.68419C33.0462 7.59858 31.6711 7.56113 31.0291 7.61998C30.7188 7.64674 30.4619 7.66279 30.4566 7.65744C30.4512 7.65744 30.4833 7.54508 30.5315 7.41667C30.6492 7.0903 30.5904 6.82278 30.3496 6.55526C29.9644 6.12723 28.9264 5.75805 28.1185 5.75805C27.2196 5.75805 26.6685 6.02557 25.5717 6.98864C24.6514 7.79119 24.3465 7.96241 24.004 7.85005C23.2496 7.59858 23.0142 6.05767 23.6242 5.38352C24.0361 4.92874 24.4535 4.78428 25.8125 4.60772C26.9574 4.4579 27.1394 4.4151 27.3962 4.24389C27.6583 4.06733 27.7225 3.91752 27.6958 3.51089C27.669 3.06681 27.4497 2.58527 27.0216 2.05558C26.3368 1.19417 25.3095 0.53072 24.1003 0.161545C23.6777 0.0331345 23.5171 0.0170822 22.7895 0.00103378C22.3347 -0.00431824 21.7087 0.011734 21.4037 0.0331345Z" fill="#929292"/>
<path d="M10.1787 9.11202C10.1038 9.28323 9.863 9.91458 9.64363 10.5192C9.41892 11.1238 9.07114 11.9745 8.86248 12.4186C8.65916 12.8573 8.36489 13.4993 8.20973 13.8418C7.92081 14.4838 6.75443 16.4581 5.67365 18.1435C5.22957 18.8283 4.92459 19.2403 4.59822 19.5774C4.00968 20.198 3.38368 20.717 2.8861 21.0059C1.71436 21.6908 1.10977 22.3649 0.772696 23.3761C0.574732 23.97 0.54798 24.4088 0.68709 24.6335C0.949259 25.0508 1.35589 25.115 2.08354 24.8582C2.32966 24.7672 2.62928 24.6977 2.74164 24.6977H2.95565L2.9182 25.1899C2.8647 25.8801 2.79514 26.1744 2.58648 26.5489C2.40991 26.8646 2.40456 26.8913 2.40456 27.4852C2.39921 27.9079 2.37246 28.1594 2.31896 28.3092C2.01934 29.069 2.30826 29.5933 3.14827 29.8073C3.50139 29.8929 3.5977 30.0534 3.62445 30.5992C3.6512 31.1342 3.5442 31.5836 3.31948 31.8672C2.9717 32.3059 2.67208 33.1192 2.67208 33.6221C2.67208 33.7826 2.69883 34.0716 2.73094 34.2588C2.80049 34.6548 2.9503 34.8634 3.27668 35.0346C3.46394 35.1256 3.5549 35.1416 3.92407 35.1095C5.33657 35.0025 5.45428 35.0079 6.20334 35.1523C7.0273 35.3075 8.41305 35.4734 9.62758 35.559C10.5478 35.6232 10.7298 35.666 11.0561 35.8853C11.7035 36.3348 12.0032 37.1213 12.0032 38.4214C12.0085 39.0207 11.9978 39.0902 11.8319 39.4969C11.5912 40.1014 11.3023 40.5241 10.7084 41.1501C9.81485 42.0864 9.75599 42.2898 10.4034 42.1132C10.9384 41.9687 11.5644 41.6477 11.8159 41.3855C12.1797 41.0057 12.5542 40.3797 12.795 39.759C12.9876 39.2507 13.0197 39.1009 13.0411 38.6568C13.0786 37.8061 12.9983 37.3888 12.6291 36.5809C12.4579 36.1957 12.2493 35.773 12.169 35.6392C12.0085 35.361 11.5163 34.9704 11.1685 34.842C10.8903 34.7404 9.56338 34.5638 8.504 34.4889C8.07597 34.4568 7.40182 34.3765 7.00589 34.3123C6.41735 34.216 6.13913 34.2 5.50779 34.2214C5.07976 34.2321 4.46981 34.2428 4.14344 34.2481H3.5549L3.53884 33.9806C3.50674 33.5044 3.6191 33.1085 3.92942 32.6163C4.33605 31.9635 4.42701 31.7602 4.49121 31.3803C4.57147 30.8827 4.55542 30.2139 4.45911 29.8929C4.32 29.4114 3.86522 29.0315 3.32483 28.9459L3.11616 28.9138L3.18572 28.6088C3.22852 28.443 3.26062 28.0631 3.26062 27.7581V27.2124H3.5442C3.70471 27.2124 3.97223 27.2605 4.14344 27.3194C4.58752 27.4745 5.679 27.6939 5.98932 27.6939C6.33175 27.6939 6.38525 27.5922 6.17658 27.3729C5.89301 27.0786 4.18089 26.3028 3.81171 26.3028C3.68331 26.3028 3.63515 26.2814 3.63515 26.2118C3.63515 26.1262 3.80101 25.115 3.82242 25.0829C3.82777 25.0776 3.99898 25.1311 4.20229 25.2113C4.47516 25.313 4.62497 25.3397 4.77478 25.3183C5.00485 25.2809 5.45963 25.0669 5.53989 24.9545C5.57199 24.9171 5.65225 24.6121 5.7218 24.2804C5.87161 23.5367 5.85021 22.9749 5.6683 22.611C5.56129 22.4024 5.53989 22.3863 5.48103 22.4666C5.44893 22.5147 5.39008 22.7287 5.35263 22.9374C5.25097 23.5741 4.92994 24.2269 4.64637 24.3767C4.56077 24.4248 4.48586 24.3981 4.2344 24.2483C3.82242 23.9914 3.37833 23.8416 3.03056 23.8416C2.77909 23.8416 2.25475 23.9165 1.67156 24.0342L1.50035 24.0663L1.70901 23.5795C2.06749 22.7341 2.43132 22.3382 3.33018 21.8031C4.29325 21.236 4.66243 20.9257 5.49709 19.9787C6.09098 19.3045 6.35315 18.9621 6.64207 18.4645C6.85073 18.1114 7.46603 17.0734 8.01177 16.1585L9.00694 14.4945L9.27446 14.5213C9.42427 14.532 9.77739 14.6015 10.0556 14.6764C10.3338 14.746 10.8421 14.8797 11.1792 14.9653C11.8266 15.1312 12.4205 15.1847 12.5221 15.083C12.7094 14.8958 12.1102 14.548 10.58 13.9381C9.96466 13.6973 9.46707 13.4779 9.46707 13.4565C9.46707 13.4298 9.62223 13.0178 9.81485 12.5416C10.291 11.3431 10.4355 10.7332 10.4676 9.81292C10.5104 8.74284 10.4301 8.55558 10.1787 9.11202Z" fill="#929292"/>
<path d="M8.64862 16.4438C8.57907 16.5133 8.61652 16.631 8.90009 17.2784C9.05525 17.6369 9.26392 18.1719 9.35487 18.4662C9.45118 18.7605 9.56354 19.0547 9.60634 19.119C9.73475 19.3169 9.95947 19.2741 10.7513 18.8996C11.1473 18.7123 11.6823 18.4609 11.9445 18.3431C12.2013 18.2201 12.4099 18.097 12.4099 18.0649C12.4099 18.0061 12.3564 17.9793 11.8321 17.7921C11.6288 17.7225 11.3078 17.5352 11.0295 17.3266C10.4838 16.9199 9.98087 16.6738 9.37627 16.5187C8.92684 16.401 8.70748 16.3796 8.64862 16.4438Z" fill="#929292"/>
<path d="M53.8039 31.7754V11.1388H70.9427V31.7754H66.7746V14.9863H57.972V31.7754H53.8039ZM76.489 31.7754V27.8113C77.344 27.8113 78.0533 27.7627 78.6168 27.6656C79.1998 27.5684 79.6953 27.3741 80.1033 27.0826C80.5114 26.7717 80.8903 26.3248 81.2401 25.7418L73.3994 11.1388H78.267L83.4262 21.7194L87.6234 11.1388H92.083L87.2154 22.5064C86.9045 23.2254 86.5741 23.9832 86.2244 24.7799C85.8746 25.5572 85.4957 26.3248 85.0876 27.0826C84.699 27.821 84.2617 28.4914 83.7759 29.0938C83.3096 29.6962 82.7946 30.182 82.2311 30.5512C81.5316 31.0175 80.7154 31.3382 79.7827 31.5131C78.8694 31.6879 77.7715 31.7754 76.489 31.7754ZM94.1951 31.7754V11.1388H98.3632V27.9279H104.426V11.1388H108.594V27.9279H114.657V11.1388H118.825V31.7754H94.1951ZM123.201 31.7754V11.1388H127.369V19.7082H130.313L135.676 11.1388H140.456L133.81 21.1656L140.427 31.7754H135.559L130.458 23.5557H127.369V31.7754H123.201ZM142.813 31.7754V11.1388H146.981V24.7216L156.862 11.1388H160.418V31.7754H156.25V18.3674L146.369 31.7754H142.813ZM164.787 31.7754V11.1388H168.955V19.6791H177.875V11.1388H182.072V31.7754H177.875V23.5266H168.955V31.7754H164.787ZM195.251 32.0086C193.133 32.0086 191.326 31.5811 189.83 30.7261C188.353 29.8516 187.226 28.6274 186.449 27.0535C185.691 25.4795 185.312 23.6432 185.312 21.5445C185.312 19.407 185.701 17.5416 186.478 15.9482C187.275 14.3548 188.411 13.1208 189.888 12.2464C191.365 11.3525 193.143 10.9056 195.222 10.9056C196.796 10.9056 198.205 11.1777 199.449 11.7218C200.692 12.2464 201.693 13.0334 202.451 14.0827C203.228 15.1126 203.714 16.3854 203.908 17.9011H199.886C199.633 16.9489 199.118 16.2008 198.341 15.6567C197.583 15.0932 196.573 14.8114 195.31 14.8114C193.911 14.8114 192.793 15.132 191.958 15.7733C191.142 16.3951 190.549 17.2112 190.18 18.2217C189.811 19.2127 189.626 20.262 189.626 21.3696C189.626 22.5161 189.82 23.6043 190.209 24.6342C190.598 25.6641 191.21 26.4997 192.045 27.1409C192.9 27.7822 194.018 28.1028 195.397 28.1028C196.213 28.1028 196.942 27.9862 197.583 27.753C198.225 27.5004 198.749 27.1409 199.157 26.6745C199.585 26.2082 199.876 25.6544 200.032 25.0131H204.2C204.025 26.5094 203.52 27.7822 202.684 28.8315C201.849 29.8808 200.79 30.6775 199.507 31.2216C198.225 31.7462 196.806 32.0086 195.251 32.0086ZM207.427 31.7754V11.1388H211.595V19.7082H214.539L219.902 11.1388H224.683L218.037 21.1656L224.654 31.7754H219.786L214.685 23.5557H211.595V31.7754H207.427ZM224.882 31.7754L232.927 11.1388H237.591L245.548 31.7754H241.059L239.777 28.2485H230.654L229.371 31.7754H224.882ZM231.994 24.4885H238.465L235.259 15.5693L231.994 24.4885ZM246.887 31.7754L252.075 24.0512C250.618 23.6043 249.491 22.8659 248.694 21.836C247.898 20.7867 247.499 19.4459 247.499 17.8136C247.499 16.5506 247.713 15.4915 248.14 14.6365C248.587 13.7815 249.19 13.1014 249.948 12.5962C250.705 12.0715 251.58 11.7023 252.571 11.4886C253.581 11.2554 254.65 11.1388 255.777 11.1388H263.851V31.7754H259.683V24.7508H256.214L251.813 31.7754H246.887ZM255.806 21.0199H259.683V15.0154H255.457C254.679 15.0154 254.009 15.1126 253.445 15.3069C252.882 15.5012 252.435 15.8121 252.105 16.2396C251.794 16.6671 251.638 17.2404 251.638 17.9594C251.638 18.7755 251.842 19.407 252.25 19.854C252.658 20.3009 253.183 20.6118 253.824 20.7867C254.485 20.9421 255.146 21.0199 255.806 21.0199ZM276.454 31.7754V11.1388H280.622V19.7082H283.566L288.929 11.1388H293.709L287.064 21.1656L293.68 31.7754H288.812L283.712 23.5557H280.622V31.7754H276.454ZM293.909 31.7754L301.954 11.1388H306.617L314.575 31.7754H310.086L308.803 28.2485H299.68L298.398 31.7754H293.909ZM301.021 24.4885H307.492L304.286 15.5693L301.021 24.4885ZM316.788 31.7754V11.1388H324.833C326.407 11.1388 327.777 11.3817 328.943 11.8675C330.128 12.3339 331.041 13.0917 331.683 14.141C332.324 15.1709 332.645 16.5506 332.645 18.28C332.645 19.8928 332.285 21.2433 331.566 22.3315C330.867 23.4197 329.905 24.2358 328.68 24.7799C327.456 25.3046 326.067 25.5669 324.512 25.5669H320.956V31.7754H316.788ZM320.956 21.836H324.454C325.698 21.836 326.679 21.5445 327.398 20.9616C328.136 20.3592 328.506 19.4556 328.506 18.2508C328.506 17.1627 328.195 16.3562 327.573 15.8316C326.97 15.2875 325.999 15.0154 324.658 15.0154H320.956V21.836ZM340.146 31.7754V15.0154H333.85V11.1388H350.669V15.0154H344.343V31.7754H340.146ZM349.159 31.7754L357.204 11.1388H361.867L369.824 31.7754H365.336L364.053 28.2485H354.93L353.648 31.7754H349.159ZM356.271 24.4885H362.742L359.535 15.5693L356.271 24.4885Z" fill="#929292"/>
</svg>
