<svg width="146" height="27" viewBox="0 0 146 27" fill="none" xmlns="http://www.w3.org/2000/svg">
<g opacity="0.82">
<path d="M27.6189 13.3409C27.3236 13.6684 27.0283 13.9959 26.733 14.3274C25.6257 15.5636 24.5224 16.7998 23.4191 18.036C21.959 19.6733 20.4989 21.3147 19.0347 22.9562C18.0955 24.0081 17.1562 25.0601 16.217 26.1121C16.1309 26.2103 16.0366 26.2595 15.8971 26.2595C15.2983 26.2513 14.6995 26.2472 14.1007 26.2595C13.9038 26.2636 13.8423 26.2144 13.8423 26.0098C13.8505 23.1936 13.8464 20.3774 13.8464 17.5571C13.8464 16.1612 13.8464 14.7613 13.8464 13.3532C13.6742 13.3737 13.6208 13.521 13.5388 13.6111C12.1566 15.1461 10.7786 16.6852 9.40459 18.2284C7.76813 20.0622 6.13577 21.9001 4.50341 23.7339C3.80207 24.5198 3.09663 25.3057 2.39529 26.0916C2.29685 26.2022 2.19431 26.2554 2.03846 26.2554C1.43966 26.2472 0.840851 26.2431 0.242046 26.2554C0.0410767 26.2595 6.10352e-05 26.194 6.10352e-05 26.0098C0.00416244 21.8919 0.00416332 17.7699 0.00416332 13.652C0.00416332 9.29264 0.00416332 4.93325 0.00416332 0.573857C0.00416332 0.287324 0.00416344 0.287325 0.283059 0.287325C4.70028 0.287325 9.12159 0.287325 13.5388 0.287325C13.8423 0.287325 13.8464 0.287325 13.8464 0.594324C13.8464 4.70812 13.8464 8.81781 13.8464 12.9316C13.8464 13.0176 13.8464 13.0994 13.8464 13.255C14.0351 13.0503 14.1745 12.903 14.314 12.7474C15.6592 11.237 17.0004 9.72653 18.3498 8.22019C19.814 6.58286 21.2823 4.94962 22.7465 3.31229C23.5914 2.37083 24.4322 1.42527 25.2688 0.475621C25.3837 0.344634 25.5026 0.283232 25.679 0.287325C26.2614 0.299605 26.8479 0.299605 27.4303 0.287325C27.623 0.283232 27.6723 0.336443 27.6723 0.52883C27.6682 4.61397 27.6682 8.69501 27.6682 12.7802C27.6682 12.8661 27.6641 12.9562 27.6682 13.0421C27.6723 13.0953 27.6313 13.1731 27.7051 13.1936C27.7543 13.2099 27.7912 13.1526 27.824 13.1117C29.3333 11.4171 30.8386 9.72244 32.352 8.03189C34.3124 5.83378 36.2811 3.64385 38.2457 1.44574C38.5451 1.11008 38.8486 0.774433 39.1398 0.430594C39.23 0.324167 39.3244 0.287325 39.4597 0.287325C40.0667 0.291418 40.6737 0.295512 41.2766 0.287325C41.4612 0.283232 41.5104 0.344632 41.5063 0.524739C41.5022 2.23575 41.5022 3.94676 41.5022 5.65777C41.5022 12.4199 41.5022 19.1821 41.5022 25.9443C41.5022 26.2636 41.5022 26.2636 41.1864 26.2636C36.7692 26.2636 32.3479 26.2636 27.9307 26.2677C27.7092 26.2677 27.6518 26.2144 27.6518 25.9893C27.66 21.8632 27.6559 17.7331 27.6559 13.607C27.6559 13.5292 27.6559 13.4474 27.6559 13.3696C27.6518 13.3532 27.6353 13.345 27.6189 13.3409Z" fill="#7A7A7A"/>
<path d="M59.7862 24.3529C59.9585 23.8904 60.1307 23.4319 60.303 22.9694C60.709 21.8724 61.111 20.7754 61.5129 19.6784C61.919 18.5732 62.3209 17.468 62.731 16.3668C63.133 15.278 63.5349 14.1851 63.9369 13.0963C64.4044 11.8274 64.8761 10.5625 65.3395 9.29358C65.8071 8.02465 66.2705 6.75982 66.7381 5.49089C67.2098 4.20968 67.6814 2.92847 68.1531 1.64726C68.2925 1.26658 68.4361 0.885898 68.5673 0.501125C68.6248 0.337392 68.7068 0.28418 68.8873 0.28418C70.8149 0.292366 72.7426 0.288271 74.6702 0.288271C77.1393 0.288271 79.6083 0.288271 82.0774 0.288271C82.3891 0.288271 82.3932 0.288274 82.3932 0.611647C82.3932 8.28254 82.3932 15.9534 82.3932 23.6284C82.3932 24.4143 82.3891 25.2002 82.3973 25.9862C82.4014 26.1867 82.3563 26.2604 82.1348 26.2604C79.9077 26.2522 77.6807 26.2522 75.4536 26.2604C75.2526 26.2604 75.2034 26.2031 75.2034 26.0066C75.2075 18.1515 75.2075 10.3005 75.2075 2.44545C75.2075 2.36359 75.2075 2.28581 75.2075 2.19985C75.1255 2.20395 75.1173 2.26944 75.1009 2.31856C74.6415 3.55884 74.1863 4.79912 73.731 6.03939C73.2635 7.31242 72.7918 8.58953 72.3242 9.86256C71.8608 11.1233 71.3932 12.384 70.9298 13.6448C70.4704 14.8933 70.011 16.1417 69.5558 17.3861C69.0923 18.6468 68.6248 19.9076 68.1613 21.1683C67.6199 22.6419 67.0785 24.1114 66.533 25.585C66.5289 25.5932 66.5248 25.5973 66.5248 25.6055C66.4346 25.8183 66.4387 26.1212 66.2459 26.2236C66.0696 26.3177 65.803 26.2563 65.5774 26.2563C61.3325 26.2563 57.0916 26.2563 52.8466 26.2563C52.5472 26.2563 52.5472 26.2563 52.5472 25.9616C52.5472 17.5171 52.5472 9.07664 52.5472 0.632109C52.5472 0.292363 52.5472 0.292368 52.8877 0.292368C55.086 0.292368 57.2844 0.296457 59.4827 0.288271C59.6919 0.288271 59.7493 0.33739 59.7493 0.550243C59.7452 8.38896 59.7452 16.2277 59.7452 24.0664C59.7452 24.1605 59.7452 24.2547 59.7452 24.3488C59.7534 24.3488 59.7698 24.3488 59.7862 24.3529Z" fill="#7A7A7A"/>
<path d="M138.332 2.232C138.123 2.80097 137.91 3.37404 137.701 3.94301C137.172 5.37568 136.643 6.80424 136.118 8.23691C135.65 9.50584 135.187 10.7748 134.719 12.0396C134.256 13.2922 133.792 14.5488 133.333 15.8014C132.935 16.8779 132.537 17.9545 132.143 19.031C131.741 20.1198 131.344 21.2127 130.942 22.3016C130.478 23.5541 130.015 24.8067 129.555 26.0633C129.506 26.1984 129.445 26.2516 129.293 26.2516C124.851 26.2475 120.413 26.2475 115.971 26.2557C115.721 26.2557 115.75 26.1247 115.75 25.9692C115.75 19.7596 115.75 13.55 115.75 7.34047C115.75 5.07686 115.754 2.81325 115.746 0.549643C115.746 0.320416 115.816 0.275391 116.029 0.275391C118.235 0.283577 120.442 0.279488 122.644 0.279488C122.944 0.279488 122.944 0.279482 122.944 0.574202C122.944 8.41292 122.944 16.2516 122.944 24.0944C122.944 24.1722 122.944 24.25 122.944 24.3892C123.124 24.0822 123.194 23.7997 123.297 23.5337C123.817 22.1378 124.326 20.7379 124.839 19.3421C125.38 17.8685 125.93 16.399 126.471 14.9295C126.939 13.6606 127.398 12.3916 127.861 11.1227C128.325 9.86196 128.801 8.60531 129.264 7.34456C129.793 5.90781 130.318 4.46696 130.843 3.0261C131.159 2.16651 131.483 1.311 131.791 0.451407C131.852 0.283581 131.955 0.279488 132.094 0.279488C134.809 0.279488 137.528 0.279488 140.244 0.279488C141.946 0.279488 143.648 0.283577 145.35 0.275391C145.555 0.275391 145.6 0.336792 145.6 0.533272C145.596 9.01873 145.596 17.5083 145.6 25.9937C145.6 26.2148 145.53 26.2516 145.325 26.2516C143.111 26.2434 140.9 26.2475 138.685 26.2475C138.398 26.2475 138.398 26.2475 138.398 25.9651C138.398 18.1468 138.398 10.3286 138.398 2.51035C138.398 2.4203 138.398 2.32615 138.398 2.2361C138.377 2.24019 138.353 2.23609 138.332 2.232Z" fill="#7A7A7A"/>
<path d="M86.3716 13.2605C86.3716 9.03207 86.3716 4.80366 86.3716 0.571166C86.3716 0.284633 86.3716 0.284635 86.6505 0.284635C91.6912 0.284635 96.7277 0.280541 101.768 0.296914C103.269 0.301007 104.75 0.509767 106.19 0.955939C107.629 1.40211 108.938 2.07751 110.02 3.14177C110.964 4.06686 111.603 5.17206 111.985 6.4369C112.444 7.95143 112.481 9.49461 112.301 11.0419C112.067 13.0394 111.312 14.8159 109.864 16.2568C108.995 17.1205 107.974 17.7508 106.838 18.2052C105.013 18.9379 103.101 19.1549 101.157 19.1549C98.8727 19.1549 96.5841 19.1549 94.2996 19.1549C94.0002 19.1549 94.0002 19.1549 94.0002 19.4455C94.0002 21.6231 93.9961 23.7967 94.0043 25.9743C94.0043 26.1954 93.9469 26.2527 93.7255 26.2527C91.3589 26.2445 88.9924 26.2445 86.6259 26.2527C86.4044 26.2527 86.3675 26.1872 86.3675 25.9825C86.3757 21.7459 86.3716 17.5052 86.3716 13.2605ZM97.8843 13.3955C98.8194 13.3955 99.7545 13.4037 100.69 13.3915C101.206 13.3874 101.723 13.371 102.232 13.24C103.032 13.0353 103.716 12.6628 104.139 11.9342C104.783 10.8249 104.84 9.62969 104.549 8.40988C104.319 7.44385 103.712 6.78483 102.79 6.41234C102.248 6.19539 101.686 6.09715 101.104 6.09715C98.803 6.09715 96.5062 6.09715 94.2053 6.08896C94.0084 6.08896 94.0002 6.17493 94.0002 6.32229C94.0043 8.59818 94.0043 10.8782 93.9961 13.154C93.9961 13.3546 94.0618 13.3955 94.2463 13.3955C95.4603 13.3915 96.6703 13.3955 97.8843 13.3955Z" fill="#7A7A7A"/>
</g>
</svg>
