<svg width="56" height="41" viewBox="0 0 56 41" fill="none" xmlns="http://www.w3.org/2000/svg">
<path id="&#226;&#128;&#157;" d="M36.4746 41L31.1864 33.0689C32.452 32.3519 33.8983 31.3661 35.5254 30.1115C37.1525 28.7672 38.6441 27.3333 40 25.8098C41.3559 24.2863 42.2147 22.8973 42.5763 21.6426C39.9548 21.3738 37.6497 20.3432 35.661 18.5508C33.6723 16.7585 32.678 14.2492 32.678 11.023C32.678 7.34863 33.8531 4.6153 36.2034 2.82295C38.5537 0.940985 41.2655 0 44.339 0C48.3164 0.0896163 51.2542 1.5683 53.1525 4.43606C55.0508 7.30382 56 10.7093 56 14.6525C56 18.8645 55.0508 22.7628 53.1525 26.3475C51.3446 29.9322 48.904 33.024 45.8305 35.6229C42.8475 38.1322 39.7288 39.9246 36.4746 41ZM5.28814 41L0 33.0689C1.35593 32.3519 2.80226 31.3661 4.33898 30.1115C5.9661 28.7672 7.45763 27.3333 8.81356 25.8098C10.1695 24.2863 11.0282 22.8973 11.3898 21.6426C8.76836 21.3738 6.46328 20.3432 4.47458 18.5508C2.48588 16.7585 1.49152 14.2492 1.49152 11.023C1.49152 7.34863 2.66667 4.6153 5.01695 2.82295C7.36723 0.940985 10.0791 0 13.1525 0C17.2203 0.0896163 20.2034 1.5683 22.1017 4.43606C24 7.30382 24.9492 10.7093 24.9492 14.6525C24.9492 18.8645 23.9548 22.7628 21.9661 26.3475C20.0678 29.9322 17.6271 33.024 14.6441 35.6229C11.7514 38.1322 8.63277 39.9246 5.28814 41Z" fill="#C4C4C4"/>
</svg>
