<svg width="1793" height="221" viewBox="0 0 1793 221" fill="none" xmlns="http://www.w3.org/2000/svg">
<path d="M315.21 137.6C308.19 137.93 302.23 138.51 296.28 138.45C263.44 138.11 238.44 113.41 237.55 80.5902C236.63 46.8702 254.36 21.3102 286.29 12.5402C324.65 2.01022 364.78 26.4102 370.35 65.9502C373.7 89.7102 366.34 110.8 355.19 130.92C342.31 154.18 324.98 173.87 304.5 190.78C303.14 191.9 301.52 193.47 299.99 193.49C286.85 193.71 273.7 193.61 258.84 193.61C280.48 176.51 298.54 158.3 315.21 137.6ZM269.95 75.8602C269.96 95.6902 285.46 111.94 304.35 111.91C323.13 111.88 338.91 95.4102 338.9 75.8402C338.89 56.2402 323.13 39.8102 304.33 39.8102C285.4 39.8002 269.93 56.0202 269.95 75.8602Z" fill="white"/>
<path d="M130.16 193.36C118.81 193.36 108.48 193.36 97.6099 193.36C97.6099 177.05 97.6099 161.08 97.6099 144.48C68.2899 144.48 39.4999 144.48 9.87993 144.48C9.87993 135.72 9.73992 127.57 9.99992 119.43C10.0499 117.88 11.5399 116.25 12.6399 114.86C38.0799 82.8101 63.5099 50.7501 89.1699 18.8701C90.8699 16.7601 94.3399 15.0802 97.0499 14.9702C107.81 14.5302 118.6 14.7901 129.86 14.7901C129.86 48.6601 129.86 81.7002 129.86 115.47C142.03 115.47 153.73 115.47 166.93 115.47C159.94 125.45 153.87 134.29 147.54 142.95C146.82 143.93 144.74 144.22 143.27 144.28C139.1 144.45 134.92 144.34 130.16 144.34C130.16 160.76 130.16 176.73 130.16 193.36ZM97.2999 52.6902C80.2899 74.1502 64.2399 94.3902 47.7199 115.23C65.1199 115.23 81.0899 115.23 97.2999 115.23C97.2999 94.6702 97.2999 74.5002 97.2999 52.6902Z" fill="white"/>
<path d="M1544.4 13.3701H1520.08V197.47H1544.4V13.3701Z" fill="white"/>
<path d="M1105.85 173.16V121.86C1110.87 120.66 1124.14 117.58 1128.2 117.58C1143.37 117.58 1181.4 117.58 1181.4 117.58V93.2701C1181.4 93.2701 1143.22 93.2801 1128.21 93.2801C1124.03 93.2801 1110.84 96.3501 1105.85 97.5501V37.7001H1209.19V13.3901H1081.54V14.2601V37.7101V173.18V197.5H1105.86H1220.49V173.18H1105.85V173.16Z" fill="white"/>
<path d="M1022.05 12.51L985.15 12.5L911.56 105.42L831.44 12.51H796.6L819.28 39.15V197.47H843.6V67.71L911.56 147.54L972.99 72.47V197.47H997.3V42.75L1022.05 12.51Z" fill="white"/>
<path d="M1444.8 59.4498C1437.76 46.3498 1427.93 35.8698 1415.33 27.9798C1407.95 23.4198 1398.94 19.8298 1388.28 17.2198C1377.63 14.6098 1363.26 13.2998 1345.18 13.2998H1274.27L1282.9 38.5998L1298.92 38.4298V198.48H1345.68C1362.67 198.48 1376.38 197.32 1386.78 195C1397.19 192.68 1406.61 188.9 1415.07 183.68C1427.26 176.14 1437.02 165.53 1444.36 151.84C1451.71 138.16 1455.37 122.91 1455.37 106.08C1455.37 88.0998 1451.85 72.5498 1444.8 59.4498ZM1422.72 141.78C1418.12 151.4 1411.22 159.15 1402.01 165.03C1394.63 169.76 1386.53 172.99 1377.7 174.73C1368.87 176.47 1358.53 177.34 1346.67 177.34H1324.69V38.5398H1346.08C1357.52 38.5398 1405.01 35.9898 1422.04 69.0098C1427.15 78.9298 1429.62 91.1898 1429.62 105.7C1429.62 120.14 1427.32 132.17 1422.72 141.78Z" fill="white"/>
<path d="M1782.77 199.21L1697.56 12.5H1673.24L1682.55 32.91H1682.46L1603 197.95H1627.31L1636.25 179.38C1648.17 177.52 1680.06 172.73 1691.79 172.73C1703.81 172.73 1735.65 172.73 1746.35 172.73L1758.44 199.22H1782.77V199.21ZM1691.81 148.41C1683.12 148.41 1663.41 151.04 1648.9 153.16L1694.36 58.74L1735.28 148.41C1721.21 148.41 1700.87 148.41 1691.81 148.41Z" fill="white"/>
<path d="M696.62 146.36C717.552 146.36 734.52 129.392 734.52 108.46C734.52 87.5285 717.552 70.5601 696.62 70.5601C675.688 70.5601 658.72 87.5285 658.72 108.46C658.72 129.392 675.688 146.36 696.62 146.36Z" fill="#E20613"/>
<path d="M465.33 11.8901H564.48V39.1101H486.07L480.24 79.9401C480.24 79.9401 513.82 72.1801 543.1 81.8801C565.88 89.4301 586.48 109.3 583.93 140.2C578.94 200.68 517.9 207.02 478.3 194.2C450.37 185.16 438.12 166.77 438.12 166.77L456.27 148.62C456.27 148.62 471.68 164.08 493.86 170.65C518.12 177.84 549.61 174.95 556.72 142.78C562.25 117.76 538.5 103.8 515.89 102.6C493.28 101.4 471.82 112.97 471.82 112.97H447.19L465.33 11.8901Z" fill="white"/>
</svg>
