<svg width="251" height="27" viewBox="0 0 251 27" fill="none" xmlns="http://www.w3.org/2000/svg">
<path d="M43.682 17.7968C42.6902 17.8421 41.8521 17.9251 41.014 17.9175C36.3854 17.8723 32.8562 14.4547 32.7332 9.91293C32.6025 5.2505 35.1014 1.71219 39.607 0.497544C45.0199 -0.958524 50.6788 2.4138 51.4631 7.88349C51.9321 11.1728 50.8941 14.0925 49.3256 16.8689C47.511 20.0903 45.066 22.8139 42.175 25.1526C41.9828 25.311 41.7521 25.5223 41.5369 25.5298C39.6839 25.56 37.8309 25.5449 35.7318 25.5449C38.7843 23.1835 41.3293 20.6637 43.682 17.7968ZM37.3004 9.25657C37.3004 12.0027 39.4917 14.251 42.152 14.2434C44.7969 14.2359 47.0267 11.9575 47.0267 9.24902C47.0267 6.54058 44.8046 4.26219 42.152 4.26219C39.4763 4.26219 37.2927 6.51041 37.3004 9.25657Z" fill="#6D6D6D"/>
<path d="M17.5861 25.5154C15.9868 25.5154 14.526 25.5154 12.9959 25.5154C12.9959 23.2596 12.9959 21.0492 12.9959 18.7481C8.85935 18.7481 4.79966 18.7481 0.624659 18.7481C0.624659 17.5335 0.601596 16.4093 0.64004 15.2852C0.647728 15.0664 0.855322 14.8476 1.0091 14.6515C4.59976 10.2154 8.18273 5.77928 11.7965 1.37336C12.0348 1.07913 12.5269 0.845272 12.9113 0.830183C14.426 0.769828 15.9484 0.807528 17.54 0.807528C17.54 5.4926 17.54 10.0645 17.54 14.7345C19.2546 14.7345 20.9077 14.7345 22.7683 14.7345C21.7842 16.1151 20.923 17.3373 20.0311 18.5368C19.9312 18.6726 19.639 18.7104 19.4314 18.7179C18.8471 18.7406 18.255 18.7255 17.5861 18.7255C17.5861 21.0039 17.5861 23.2144 17.5861 25.5154ZM12.9498 6.05089C10.5509 9.02338 8.29037 11.8224 5.96067 14.7043C8.41339 14.7043 10.6662 14.7043 12.9498 14.7043C12.9498 11.8601 12.9498 9.06865 12.9498 6.05089Z" fill="#6D6D6D"/>
<path d="M217.01 0.610352H213.581V26.0802H217.01V0.610352Z" fill="#6D6D6D"/>
<path d="M155.169 22.7152V15.6159C155.876 15.4499 157.753 15.0274 158.322 15.0274C160.459 15.0274 165.826 15.0274 165.826 15.0274V11.6626C165.826 11.6626 160.444 11.6626 158.329 11.6626C157.737 11.6626 155.876 12.0851 155.177 12.2511V3.96733H169.747V0.602539H151.748V0.723252V3.96733V22.7076V26.0724H155.177H171.339V22.7076H155.169V22.7152Z" fill="#6D6D6D"/>
<path d="M143.352 0.490234H138.146L127.774 13.3459L116.472 0.490234H111.559L114.757 4.1719V26.0808H118.186V8.12516L127.774 19.1702L136.432 8.78907V26.0808H139.861V4.67736L143.352 0.490234Z" fill="#6D6D6D"/>
<path d="M202.963 6.98509C201.971 5.17443 200.587 3.71838 198.811 2.63198C197.773 1.99825 196.497 1.50787 194.997 1.14574C193.498 0.783605 191.468 0.602539 188.923 0.602539H178.928L180.143 4.10315L182.403 4.08052V26.2233H189C191.399 26.2233 193.329 26.0649 194.797 25.7405C196.266 25.4161 197.596 24.8955 198.788 24.1712C200.51 23.1301 201.886 21.6589 202.917 19.7653C203.955 17.8717 204.47 15.7592 204.47 13.4356C204.454 10.9459 203.955 8.79574 202.963 6.98509ZM199.849 18.3771C199.203 19.7049 198.227 20.7763 196.927 21.591C195.889 22.2474 194.743 22.6925 193.498 22.9339C192.252 23.1754 190.791 23.2961 189.123 23.2961H186.024V4.0956H189.038C190.653 4.0956 197.35 3.74101 199.749 8.31291C200.472 9.68599 200.818 11.3835 200.818 13.3903C200.825 15.382 200.502 17.0418 199.849 18.3771Z" fill="#6D6D6D"/>
<path d="M250.618 26.3222L238.6 0.490234H235.171L236.486 3.31183H236.47L225.268 26.1487H228.697L229.958 23.5761C231.642 23.3196 236.132 22.6557 237.793 22.6557C239.492 22.6557 243.975 22.6557 245.489 22.6557L247.196 26.3222H250.618ZM237.793 19.2908C236.57 19.2908 233.787 19.653 231.742 19.9472L238.154 6.88034L243.921 19.2833C241.937 19.2909 239.069 19.2908 237.793 19.2908Z" fill="#6D6D6D"/>
<path d="M97.4653 19.0121C100.417 19.0121 102.809 16.6646 102.809 13.7688C102.809 10.8729 100.417 8.52539 97.4653 8.52539C94.514 8.52539 92.1216 10.8729 92.1216 13.7688C92.1216 16.6646 94.514 19.0121 97.4653 19.0121Z" fill="#ED1C24"/>
<path d="M64.8491 0.399414H78.8273V4.16406H67.7709L66.9482 9.8148C66.9482 9.8148 71.6845 8.74351 75.8133 10.0864C79.0273 11.1275 81.9336 13.8812 81.5722 18.1589C80.8649 26.5256 72.2611 27.4083 66.6791 25.6279C62.7424 24.3755 61.0125 21.833 61.0125 21.833L63.5728 19.3207C63.5728 19.3207 65.7487 21.4558 68.8704 22.3687C72.2919 23.3645 76.7283 22.9647 77.7355 18.5135C78.5121 15.0506 75.1675 13.1192 71.9766 12.9533C68.7858 12.7873 65.7641 14.3867 65.7641 14.3867H62.2888L64.8491 0.399414Z" fill="#6D6D6D"/>
</svg>
